# xmcd
#
# Track frame offsets: 
#        150
#        11413
#        24299
#        33914
#        47177
#        58825
#        71566
#        80900
#        91873
#        102847
#
# Disc length: 1503 seconds
#
# Revision: 0
# Processed by: cddbd v1.5.2PL0 Copyright (c) Steve Scherf et al.
# Submitted via: ExactAudioCopy v1.0b1
#
DISCID=7805dd0a
DTITLE=Susan Raye - Willy Jones
DYEAR=1900
DGENRE=Country
TTITLE0=Willy Jones
TTITLE1=In The Arms Of Love
TTITLE2=Heartbreak Mountain
TTITLE3=I'll Love You Forever (If You're Sure You'll Want Me Then)
TTITLE4=Happy Times Are Here Again
TTITLE5=L.A. International Airport
TTITLE6=Merry-Go-Round Of Love
TTITLE7=Baby Sittin' With Baby
TTITLE8=Now That I Understand
TTITLE9=Hello Happiness, Goodbye Loneliness
EXTD=
EXTT0=
EXTT1=
EXTT2=
EXTT3=
EXTT4=
EXTT5=
EXTT6=
EXTT7=
EXTT8=
EXTT9=
PLAYORDER=
